<?xml version="1.0" encoding="utf-8"?>
<!-- Generator: Adobe Illustrator 20.0.0, SVG Export Plug-In . SVG Version: 6.00 Build 0)  -->
<svg version="1.0" id="Layer_1" xmlns="http://www.w3.org/2000/svg" xmlns:xlink="http://www.w3.org/1999/xlink" x="0px" y="0px"
	 viewBox="0 0 278.6 126.6" width="469.108933142" height="213.170103861" style="enable-background:new 0 0 278.6 126.6;" xml:space="preserve">
<style type="text/css">
	.st0{fill:#0E7755;}
	.st1{clip-path:url(#SVGID_2_);fill:#0E7755;}
</style>
<polygon class="st0" points="75.5,109.3 75.5,126.3 85.5,126.3 85.5,124.2 77.9,124.2 77.9,109.3 "/>
<polygon class="st0" points="229.9,109.3 229.9,111.3 235.7,111.3 235.7,126.3 238.1,126.3 238.1,111.3 243.9,111.3 243.9,109.3 "/>
<g>
	<defs>
		<rect id="SVGID_1_" y="0" width="278.6" height="126.6"/>
	</defs>
	<clipPath id="SVGID_2_">
		<use xlink:href="#SVGID_1_"  style="overflow:visible;"/>
	</clipPath>
	<path class="st1" d="M248.8,122.5c0,0,1.8,1.8,4.3,1.8c1.6,0,2.9-0.9,2.9-2.5c0-3.7-8.2-2.9-8.2-8.1c0-2.6,2.3-4.7,5.5-4.7
		c3.2,0,4.8,1.7,4.8,1.7l-1.1,2c0,0-1.6-1.5-3.7-1.5c-1.8,0-3.1,1.1-3.1,2.5c0,3.5,8.2,2.6,8.2,8.1c0,2.6-2,4.8-5.4,4.8
		c-3.6,0-5.6-2.2-5.6-2.2L248.8,122.5z"/>
	<path class="st1" d="M17.7,41.5H0v50.7h5.8V72.7h11.9c9.5,0,15.8-6.3,15.8-15.7C33.5,47.7,27.1,41.5,17.7,41.5 M5.8,46.8h11.3
		c6.5,0,10.5,3.9,10.5,10.2c0,6.4-4,10.4-10.6,10.4H5.8V46.8z"/>
	<path class="st1" d="M60.4,41.5L41.8,92.2h6.1l5.7-15.9H73l5.7,15.9h6.1L66.3,41.5H60.4z M70.9,71.5L55,71l7-17.3
		c0.6-1.5,1.3-3.7,1.7-5.2c0.3,1.4,0.9,3.7,1.4,5.2L70.9,71.5z"/>
	<path class="st1" d="M122.3,69.9c5.6-1.8,9.2-7.1,9.2-13.7c0-6.1-2.9-11.1-7.8-13.2c-2-0.9-4.3-1.4-9.5-1.4H99.1v50.7h5.8v-21h11.9
		l11.3,21h6.6l-11.2-20.7C122.9,70.8,122.6,70.2,122.3,69.9 M125.7,56.3c0,6-3.6,9.7-9.4,9.7h-11.4V46.8h9.6c3.9,0,5.5,0.4,6.9,1.2
		C124.2,49.4,125.7,52.4,125.7,56.3"/>
	<polygon class="st1" points="168.3,65.6 183.5,41.5 176.9,41.5 163.5,63.2 155.7,63.2 155.7,41.5 149.9,41.5 149.9,92.2 
		155.7,92.2 155.7,68.4 163.5,68.4 177.7,92.2 184.5,92.2 	"/>
	<polygon class="st1" points="11.2,109.3 11.2,116.7 2.4,116.7 2.4,109.3 0,109.3 0,126.3 2.4,126.3 2.4,118.8 11.2,118.8 
		11.2,126.3 13.6,126.3 13.6,109.3 	"/>
	<path class="st1" d="M28.2,109c4.9,0,8.7,3.8,8.7,8.7c0,5-3.8,8.9-8.7,8.9c-4.9,0-8.7-3.9-8.7-8.9C19.5,112.8,23.3,109,28.2,109
		 M28.2,124.4c3.5,0,6.3-2.9,6.3-6.7c0-3.7-2.8-6.5-6.3-6.5s-6.3,2.8-6.3,6.5C21.9,121.5,24.8,124.4,28.2,124.4"/>
	<polygon class="st1" points="40.4,109.3 40.4,111.3 46.2,111.3 46.2,126.3 48.6,126.3 48.6,111.3 54.5,111.3 54.5,109.3 	"/>
	<polygon class="st1" points="59.3,109.3 59.3,126.3 69.6,126.3 69.6,124.2 61.7,124.2 61.7,118.7 67.8,118.7 67.8,116.7 
		61.7,116.7 61.7,111.3 69.2,111.3 69.2,109.3 	"/>
	<path class="st1" d="M90.7,122.5c0,0,1.8,1.8,4.3,1.8c1.6,0,2.9-0.9,2.9-2.5c0-3.7-8.2-2.9-8.2-8.1c0-2.6,2.3-4.7,5.5-4.7
		c3.2,0,4.8,1.7,4.8,1.7l-1.1,2c0,0-1.6-1.5-3.7-1.5c-1.8,0-3.1,1.1-3.1,2.5c0,3.5,8.2,2.6,8.2,8.1c0,2.6-2,4.8-5.4,4.8
		c-3.6,0-5.6-2.2-5.6-2.2L90.7,122.5z"/>
	<path class="st1" d="M118.3,117.1L118.3,117.1c0,0-2.2-0.8-2.2-3.8c0-2.8,2.2-4.4,5.2-4.4c0.9,0,2.1,0.3,2.1,0.3l-0.6,1.9
		c0,0-0.7-0.1-1.3-0.1c-1.7,0-3,0.9-3,2.6c0,1.1,0.5,2.7,3.1,2.7h3.2V114h2.3v2.3h2.3v2.1h-2.3v2.3c0,3.8-2.2,6-5.9,6
		c-3.5,0-5.9-2.2-5.9-5.1C115.3,119.6,116.4,117.8,118.3,117.1 M121.2,124.4c2.2,0,3.5-1.2,3.5-3.9v-2.2h-3.3c-2.4,0-3.8,1.1-3.8,3
		C117.7,123,119.1,124.4,121.2,124.4"/>
	<path class="st1" d="M142.4,109.3h5.2c1.8,0,2.5,0.1,3.2,0.4c1.7,0.6,2.9,2.4,2.9,4.6c0,2.2-1.2,4-3.1,4.6v0c0,0,0.2,0.2,0.5,0.8
		l3.6,6.6H152l-3.6-6.8h-3.6v6.8h-2.4V109.3z M148.2,117.4c1.9,0,3-1.2,3-3.1c0-1.3-0.5-2.1-1.4-2.6c-0.5-0.2-1-0.4-2.3-0.4h-2.7
		v6.1H148.2z"/>
	<polygon class="st1" points="160.2,109.3 160.2,126.3 170.5,126.3 170.5,124.2 162.6,124.2 162.6,118.7 168.7,118.7 168.7,116.7 
		162.6,116.7 162.6,111.3 170.1,111.3 170.1,109.3 	"/>
	<path class="st1" d="M228,84V73.6l7.7,3.8v10.4L228,84z M238.1,77.4l7.7-3.8V84l-7.7,3.8V77.4z M217.9,78.9V68.5l7.7,3.8v10.4
		L217.9,78.9z M248.2,72.4l7.7-3.8v10.4l-7.7,3.8V72.4z M207.8,73.9V63.5l7.7,3.8v10.4L207.8,73.9z M258.3,67.3l7.7-3.8v10.4
		l-7.7,3.8V67.3z M228,70.9V60.5l7.7,3.8v10.4L228,70.9z M238.1,64.4l7.7-3.8v10.4l-7.7,3.8V64.4z M197.7,68.8V58.5l7.7,3.8v10.4
		L197.7,68.8z M268.5,62.3l7.7-3.8v10.4l-7.7,3.8V62.3z M217.9,65.9V55.5l7.7,3.8v10.4L217.9,65.9z M248.2,59.3l7.7-3.8v10.4
		l-7.7,3.8V59.3z M207.8,60.8L207.8,60.8V50.5l7.7,3.8v10.4L207.8,60.8z M258.3,54.3l7.7-3.8v10.4v0l-7.7,3.8V54.3z M228,57.9V47.5
		l7.7,3.8v10.4L228,57.9z M238.1,51.3l7.7-3.8v10.4l-7.7,3.8V51.3z M197.7,55.8V45.4l7.7,3.8v0v10.4L197.7,55.8z M268.5,49.3
		L268.5,49.3l7.7-3.8v10.4l-7.7,3.8V49.3z M217.9,52.8V42.4l7.7,3.8v10.4L217.9,52.8z M248.2,46.3l7.7-3.8v10.4l-7.7,3.8V46.3z
		 M207.8,47.8L207.8,47.8V37.4l7.7,3.8v10.4L207.8,47.8z M258.3,41.2l7.7-3.8v10.4v0l-7.7,3.8V41.2z M228,44.8V34.4l7.7,3.8v10.4
		L228,44.8z M238.1,38.3l7.7-3.8v10.4l-7.7,3.8V38.3z M217.9,39.8V29.4l7.7,3.8v10.4L217.9,39.8z M248.2,33.2L248.2,33.2l7.7-3.8
		v10.4l-7.7,3.8V33.2z M207.8,34.7V24.3l7.7,3.8v10.4L207.8,34.7z M258.3,28.2l7.7-3.8v10.4l-7.7,3.8V28.2z M228,31.7V21.4l7.7,3.8
		v10.4L228,31.7z M238.1,25.2l7.7-3.8v10.4l-7.7,3.8V25.2z M217.9,26.7V16.3l7.7,3.8v10.4L217.9,26.7z M248.2,20.2l7.7-3.8v10.4
		l-7.7,3.8V20.2z M228,18.7V8.3l7.7,3.8v10.4L228,18.7z M238.1,12.2l7.7-3.8v10.4l-7.7,3.8V12.2z M229.5,6.4l7.4-3.7l7.4,3.7
		l-7.4,3.7L229.5,6.4z M236.9,0l-11.3,5.6v11.9l-10.1-5v13.1l-10.1-5v26.1l-10.1-5v28.8l40.5,20.2v12.3h2.4V90.5l40.5-20.2V41.5
		l-10.1,5V20.5l-10.1,5V12.5l-10.1,5V5.6L236.9,0z"/>
	<path class="st1" d="M176.5,122.5c0,0,1.8,1.8,4.3,1.8c1.6,0,2.9-0.9,2.9-2.5c0-3.7-8.2-2.9-8.2-8.1c0-2.6,2.3-4.7,5.5-4.7
		c3.2,0,4.8,1.7,4.8,1.7l-1.1,2c0,0-1.6-1.5-3.7-1.5c-1.8,0-3.1,1.1-3.1,2.5c0,3.5,8.2,2.6,8.2,8.1c0,2.6-2,4.8-5.4,4.8
		c-3.6,0-5.6-2.2-5.6-2.2L176.5,122.5z"/>
	<path class="st1" d="M199.6,109c4.9,0,8.7,3.8,8.7,8.7c0,5-3.8,8.9-8.7,8.9c-4.9,0-8.7-3.9-8.7-8.9
		C190.9,112.8,194.7,109,199.6,109 M199.6,124.4c3.5,0,6.3-2.9,6.3-6.7c0-3.7-2.8-6.5-6.3-6.5c-3.5,0-6.3,2.8-6.3,6.5
		C193.3,121.5,196.1,124.4,199.6,124.4"/>
	<path class="st1" d="M214.2,109.3h5.2c1.8,0,2.5,0.1,3.2,0.4c1.7,0.6,2.9,2.4,2.9,4.6c0,2.2-1.2,4-3.1,4.6v0c0,0,0.2,0.2,0.5,0.8
		l3.6,6.6h-2.7l-3.6-6.8h-3.6v6.8h-2.4V109.3z M220,117.4c1.9,0,3-1.2,3-3.1c0-1.3-0.5-2.1-1.4-2.6c-0.5-0.2-1-0.4-2.3-0.4h-2.7v6.1
		H220z"/>
</g>
</svg>
